<?xml version="1.0" encoding="UTF-8" standalone="no"?> <!-- Created with Vectornator for iOS (http://vectornator.io/) --><!DOCTYPE svg PUBLIC "-//W3C//DTD SVG 1.1//EN" "http://www.w3.org/Graphics/SVG/1.1/DTD/svg11.dtd">
<svg height="100%" style="fill-rule:nonzero;clip-rule:evenodd;stroke-linecap:round;stroke-linejoin:round;" xmlns:xlink="http://www.w3.org/1999/xlink" xmlns="http://www.w3.org/2000/svg" xml:space="preserve" width="100%" xmlns:vectornator="http://vectornator.io" version="1.1" viewBox="0 0 1920 1080">
<metadata>
<vectornator:setting key="DimensionsVisible" value="1"/>
<vectornator:setting key="PencilOnly" value="0"/>
<vectornator:setting key="SnapToPoints" value="0"/>
<vectornator:setting key="GuidesVisible" value="1"/>
<vectornator:setting key="OutlineMode" value="0"/>
<vectornator:setting key="CMYKEnabledKey" value="0"/>
<vectornator:setting key="SnapToEdges" value="0"/>
<vectornator:setting key="RulersVisible" value="1"/>
<vectornator:setting key="DisplayWhiteBackground" value="0"/>
<vectornator:setting key="doHistoryDisabled" value="0"/>
<vectornator:setting key="SnapToGuides" value="1"/>
<vectornator:setting key="TimeLapseWatermarkDisabled" value="0"/>
<vectornator:setting key="DynamicGuides" value="0"/>
<vectornator:setting key="SnapToGrid" value="0"/>
<vectornator:setting key="IsolateActiveLayer" value="0"/>
<vectornator:setting key="Units" value="Pixels"/>
</metadata>
<defs>
<linearGradient y1="1814.59" id="LinearGradient" x1="15.2797" y2="1814.59" x2="3365.81" gradientUnits="userSpaceOnUse" gradientTransform="matrix(0.603527 0 0 0.586812 120.422 -218.147)">
<stop stop-color="#616161" offset="1"/>
<stop stop-color="#5a5a5a" offset="1"/>
</linearGradient>
<linearGradient y1="1814.59" id="LinearGradient_2" x1="15.2797" y2="1814.59" x2="3365.81" gradientUnits="userSpaceOnUse" gradientTransform="matrix(0.603527 0 0 0.586812 120.422 -218.147)">
<stop stop-color="#616161" offset="1"/>
<stop stop-color="#5a5a5a" offset="1"/>
</linearGradient>
<linearGradient y1="1814.59" id="LinearGradient_3" x1="15.2797" y2="1814.59" x2="3365.81" gradientUnits="userSpaceOnUse" gradientTransform="matrix(0.603527 0 0 0.586812 120.422 -218.147)">
<stop stop-color="#616161" offset="1"/>
<stop stop-color="#5a5a5a" offset="1"/>
</linearGradient>
<linearGradient y1="1814.59" id="LinearGradient_4" x1="15.2797" y2="1814.59" x2="3365.81" gradientUnits="userSpaceOnUse" gradientTransform="matrix(0.603527 0 0 0.586812 120.422 -218.147)">
<stop stop-color="#616161" offset="1"/>
<stop stop-color="#5a5a5a" offset="1"/>
</linearGradient>
<linearGradient y1="1814.59" id="LinearGradient_5" x1="15.2797" y2="1814.59" x2="3365.81" gradientUnits="userSpaceOnUse" gradientTransform="matrix(0.603527 0 0 0.586812 120.422 -218.147)">
<stop stop-color="#616161" offset="1"/>
<stop stop-color="#5a5a5a" offset="1"/>
</linearGradient>
<linearGradient y1="1814.59" id="LinearGradient_6" x1="15.2797" y2="1814.59" x2="3365.81" gradientUnits="userSpaceOnUse" gradientTransform="matrix(0.603527 0 0 0.586812 120.422 -218.147)">
<stop stop-color="#616161" offset="1"/>
<stop stop-color="#5a5a5a" offset="1"/>
</linearGradient>
<linearGradient y1="1814.59" id="LinearGradient_7" x1="15.2797" y2="1814.59" x2="3365.81" gradientUnits="userSpaceOnUse" gradientTransform="matrix(0.603527 0 0 0.586812 120.422 -218.147)">
<stop stop-color="#616161" offset="1"/>
<stop stop-color="#5a5a5a" offset="1"/>
</linearGradient>
<linearGradient y1="664.618" id="LinearGradient_8" x1="11.3418" y2="664.618" x2="3443.96" gradientUnits="userSpaceOnUse" gradientTransform="matrix(0.597265 -0.0843132 0.0867147 0.580724 -23.8509 225.599)">
<stop stop-color="#96c3c2" offset="1"/>
<stop stop-color="#ffa1a7" offset="1"/>
</linearGradient>
<linearGradient y1="664.618" id="LinearGradient_9" x1="11.3418" y2="664.618" x2="3443.96" gradientUnits="userSpaceOnUse" gradientTransform="matrix(0.597265 -0.0843132 0.0867147 0.580724 -23.8509 225.599)">
<stop stop-color="#96c3c2" offset="1"/>
<stop stop-color="#ffa1a7" offset="1"/>
</linearGradient>
<linearGradient y1="664.618" id="LinearGradient_10" x1="11.3418" y2="664.618" x2="3443.96" gradientUnits="userSpaceOnUse" gradientTransform="matrix(0.597265 -0.0843132 0.0867147 0.580724 -23.8509 225.599)">
<stop stop-color="#96c3c2" offset="1"/>
<stop stop-color="#ffa1a7" offset="1"/>
</linearGradient>
<linearGradient y1="664.618" id="LinearGradient_11" x1="11.3418" y2="664.618" x2="3443.96" gradientUnits="userSpaceOnUse" gradientTransform="matrix(0.597265 -0.0843132 0.0867147 0.580724 -23.8509 225.599)">
<stop stop-color="#96c3c2" offset="1"/>
<stop stop-color="#ffa1a7" offset="1"/>
</linearGradient>
<linearGradient y1="664.618" id="LinearGradient_12" x1="11.3418" y2="664.618" x2="3443.96" gradientUnits="userSpaceOnUse" gradientTransform="matrix(0.597265 -0.0843132 0.0867147 0.580724 -23.8509 225.599)">
<stop stop-color="#96c3c2" offset="1"/>
<stop stop-color="#ffa1a7" offset="1"/>
</linearGradient>
<linearGradient y1="664.618" id="LinearGradient_13" x1="11.3418" y2="664.618" x2="3443.96" gradientUnits="userSpaceOnUse" gradientTransform="matrix(0.597265 -0.0843132 0.0867147 0.580724 -23.8509 225.599)">
<stop stop-color="#96c3c2" offset="1"/>
<stop stop-color="#ffa1a7" offset="1"/>
</linearGradient>
<linearGradient y1="664.618" id="LinearGradient_14" x1="11.3418" y2="664.618" x2="3443.96" gradientUnits="userSpaceOnUse" gradientTransform="matrix(0.597265 -0.0843132 0.0867147 0.580724 -23.8509 225.599)">
<stop stop-color="#96c3c2" offset="1"/>
<stop stop-color="#ffa1a7" offset="1"/>
</linearGradient>
<linearGradient y1="664.618" id="LinearGradient_15" x1="11.3418" y2="664.618" x2="3443.96" gradientUnits="userSpaceOnUse" gradientTransform="matrix(0.597265 -0.0843132 0.0867147 0.580724 -23.8509 225.599)">
<stop stop-color="#96c3c2" offset="1"/>
<stop stop-color="#ffa1a7" offset="1"/>
</linearGradient>
<linearGradient y1="664.618" id="LinearGradient_16" x1="11.3418" y2="664.618" x2="3443.96" gradientUnits="userSpaceOnUse" gradientTransform="matrix(0.597265 -0.0843132 0.0867147 0.580724 -23.8509 225.599)">
<stop stop-color="#96c3c2" offset="1"/>
<stop stop-color="#ffa1a7" offset="1"/>
</linearGradient>
</defs>
<g id="Layer 1" vectornator:layerName="Layer 1">
<g opacity="1">
<g opacity="1">
<path d="M169.658+919.584L293.743+919.584C371.96+919.584+409.137+881.089+409.137+827.572C409.137+780.627+382.099+758.093+340.577+750.582L340.577+749.173C380.168+736.968+394.653+712.556+394.653+678.756C394.653+627.586+361.821+597.541+285.535+597.541L169.658+597.541L169.658+919.584ZM228.562+876.394L228.562+773.115L282.155+773.115C324.161+773.115+346.853+787.199+346.853+824.285C346.853+859.494+325.609+876.394+285.535+876.394L228.562+876.394ZM228.562+734.62L228.562+640.261L277.327+640.261C315.47+640.261+335.749+651.997+335.749+686.737C335.749+723.354+309.676+734.62+274.913+734.62L228.562+734.62Z" fill-rule="evenodd" fill="url(#LinearGradient)" opacity="1"/>
<path d="M567.019+923.809C636.546+923.809+684.828+879.211+684.828+801.282L684.828+794.71C684.828+717.72+641.857+673.592+567.502+673.592C497.494+673.592+449.212+718.659+449.212+796.118L449.212+803.63C449.212+879.211+491.217+923.809+567.019+923.809ZM567.985+882.967C533.222+882.967+506.185+866.066+506.185+803.63L506.185+792.363C506.185+740.254+528.394+714.434+566.537+714.434C600.334+714.434+626.889+731.334+626.889+794.241L626.889+805.977C626.889+858.086+605.162+882.967+567.985+882.967Z" fill-rule="evenodd" fill="url(#LinearGradient_2)" opacity="1"/>
<path d="M809.879+923.809C841.262+923.809+865.403+913.011+886.164+898.458L888.579+898.458L893.407+919.584L941.689+919.584L941.689+677.817L886.164+677.817L886.164+865.597C870.231+872.639+852.367+880.15+830.64+880.15C799.739+880.15+790.083+869.353+790.083+843.063L790.083+677.817L734.558+677.817L734.558+853.391C734.558+900.806+761.597+923.809+809.879+923.809Z" fill-rule="evenodd" fill="url(#LinearGradient_3)" opacity="1"/>
<path d="M1111.64+923.809C1145.92+923.809+1169.1+914.889+1185.03+905.031L1185.03+865.597C1172.48+871.23+1151.72+880.619+1121.3+880.619C1073.98+880.619+1050.32+857.147+1050.32+801.752L1050.32+790.954C1050.32+742.601+1075.91+717.251+1117.44+717.251C1146.89+717.251+1161.86+722.415+1182.62+730.395L1182.62+688.145C1166.68+679.695+1146.89+673.592+1114.06+673.592C1045.01+673.592+992.868+713.026+992.868+796.588L992.868+804.099C992.868+883.905+1038.25+923.809+1111.64+923.809Z" fill-rule="evenodd" fill="url(#LinearGradient_4)" opacity="1"/>
<path d="M1233.31+919.584L1288.84+919.584L1288.84+731.804C1303.8+724.762+1325.53+718.659+1344.84+718.659C1378.64+718.659+1386.85+728.518+1386.85+752.929L1386.85+919.584L1442.86+919.584L1442.86+740.254C1442.86+692.37+1418.23+673.592+1370.43+673.592C1340.5+673.592+1311.53+683.92+1291.25+698.473L1288.84+698.473L1288.84+576.416L1233.31+576.416L1233.31+919.584Z" fill-rule="evenodd" fill="url(#LinearGradient_5)" opacity="1"/>
<path d="M1616.19+923.809C1658.2+923.809+1687.17+912.072+1704.06+901.275L1704.06+863.719C1682.34+874.517+1659.16+881.558+1627.3+881.558C1579.98+881.558+1553.42+863.719+1550.04+813.488L1712.27+813.488L1712.27+790.954C1712.27+713.965+1680.41+674.061+1607.02+674.061C1543.77+674.061+1493.07+713.965+1493.07+795.179L1493.07+801.752C1493.07+878.272+1533.63+923.809+1616.19+923.809ZM1606.05+713.965C1638.4+713.965+1655.78+730.865+1655.78+776.401L1550.04+776.401C1553.91+727.109+1580.46+713.965+1606.05+713.965Z" fill-rule="evenodd" fill="url(#LinearGradient_6)" opacity="1"/>
<path d="M1763.45+919.584L1818.98+919.584L1818.98+739.784C1834.91+729.926+1857.12+723.823+1879.33+723.823C1885.12+723.823+1893.33+724.293+1899.61+725.231L1899.61+677.348C1897.19+676.409+1890.92+675.939+1884.16+675.939C1858.08+675.939+1832.49+688.614+1818.98+705.984L1817.04+705.984L1817.04+677.817L1763.45+677.817L1763.45+919.584Z" fill-rule="evenodd" fill="url(#LinearGradient_7)" opacity="1"/>
</g>
<g opacity="1">
<path d="M117.34+386.611C118.512+449.6+125.5+508.651+131.707+534.899C138.109+562.461+145.941+572.026+160.42+577.096C165.738+579.015+167.847+577.83+168.989+573.218C186.768+511.561+228.049+398.999+248.104+352.588C263.384+317.074+261.231+299.593+252.561+287.475C249.158+283.062+244.931+282.323+242.128+288.056C216.076+343.322+178.154+441.625+157.709+512.999C151.74+451.577+148.09+396.505+149.078+354.114C149.518+323.365+144.114+311.675+125.784+302.257C120.849+299.839+117.779+300.72+114.723+307.82C87.9845+370.744+44.7164+482.25+31.5468+544.147C26.1+568.934+32.2198+585.412+41.0711+592.612C44.7267+595.651+47.7322+594.343+48.4257+589.795C58.5396+534.999+92.1337+447.54+117.34+386.611Z" fill-rule="evenodd" fill="url(#LinearGradient_8)" opacity="1"/>
<path d="M367.788+397.508C366.147+380.397+355.042+367.288+335.781+370.005C313.383+373.168+280.922+397.761+252.312+454.283C223.002+512.23+239.772+566.34+281.432+560.46C302.933+557.427+320.685+538.467+332.352+518.585C335.409+539.053+350.033+551.224+374.417+549.111C399.249+546.94+423.893+519.002+431.963+493.405C435.965+480.384+434.339+469.499+431.962+465.831C429.585+462.163+426.514+463.044+424.86+467.28C413.669+499.543+393.454+532.64+375.219+536.102C360.118+539.124+357.77+520.334+365.327+494.362C372.63+469.757+390.15+433.932+397.078+412.942C404.577+389.645+398.197+371.425+390.307+364.535C386.586+361.056+383.133+362.435+379.947+368.667C376.06+376.33+372.05+386.236+367.788+397.508ZM338.897+470.52C321.774+512.072+302.644+543.237+284.213+545.391C266.678+547.421+266.778+508.275+284.926+467.462C303.775+425.224+332.248+392.298+346.777+391.582C359.963+391.054+359.964+418.628+338.897+470.52Z" fill-rule="evenodd" fill="url(#LinearGradient_9)" opacity="1"/>
<path d="M456.799+356.479C442.675+393.606+429.324+432.852+423.169+455.955C409.146+509.079+437.7+537.956+467.395+534.652C503.426+530.903+527.265+488.4+531.206+474.95C534.188+464.299+535.256+456.143+531.979+449.488C529.275+443.644+524.477+445.21+522.57+450.814C510.873+485.824+489.959+520.352+469.671+522.323C450.727+524.107+441.767+497.801+451.802+463.918C463.361+424.93+482.585+379.077+495.698+347.43C506.637+344.109+520.331+340.84+530.379+340.758C537.097+339.807+538.436+336.509+534.52+331.721C530.09+326.569+522.202+319.674+504.793+322.578C512.165+298.413+510.016+284.037+503.268+272.541C500.248+267.629+495.703+267.826+492.517+274.055C486.333+284.711+476.847+306.957+466.538+332.871C454.638+335.881+442.225+338.528+429.618+339.86C422.834+340.376+420.601+343.803+425.991+349.267C430.29+353.55+441.569+358.632+456.799+356.479Z" fill-rule="evenodd" fill="url(#LinearGradient_10)" opacity="1"/>
<path d="M694.78+455.415C699.548+441.402+698.178+432.254+695.227+427.776C692.915+424.549+688.437+425.177+687.23+429.349C677.501+459.188+657.548+494.021+639.316+497.49C622.87+500.699+617.571+480.542+625+453.702C631.923+429.601+648.677+394.768+655.665+374.212C664+350.358+646.86+330.541+631.367+330.946C619.08+331.351+597.932+349.008+582.168+369.025C597.069+337.125+615.543+298.496+623.697+279.553C636.618+249.712+634.711+227.745+627.004+215.936C623.98+211.026+619.436+211.223+616.189+217.018C586.471+266.131+516.19+432.594+507.016+478.359C501.511+505.822+507.363+517.447+515.702+524.278C518.846+526.948+521.851+525.633+523.059+521.461C529.842+493.376+541.858+460.544+554.152+432.571C573.954+387.527+618.355+351.021+625.151+353.615C632.9+356.525+600.69+407.326+592.217+451.659C584.437+491.445+597.811+516.69+635.441+511.374C661.87+507.647+685.944+482.009+694.78+455.415Z" fill-rule="evenodd" fill="url(#LinearGradient_11)" opacity="1"/>
<path d="M814.84+334.403C813.198+317.285+802.093+304.182+782.835+306.899C760.438+310.062+727.974+334.655+699.367+391.171C670.054+449.119+686.826+503.234+728.487+497.355C749.985+494.315+767.734+475.355+779.407+455.474C782.46+475.948+797.084+488.112+821.472+486.006C846.301+483.834+870.943+455.896+879.013+430.294C883.02+417.278+881.391+406.387+879.013+402.725C876.635+399.058+873.569+399.932+871.915+404.169C860.72+436.438+840.508+469.528+822.269+472.996C807.169+476.018+804.821+457.223+812.377+431.25C819.686+406.651+837.2+370.826+844.129+349.836C851.631+326.539+845.251+308.313+837.357+301.424C833.64+297.95+830.187+299.323+827.001+305.555C823.114+313.219+819.1+323.124+814.84+334.403ZM785.949+407.408C768.827+448.966+749.695+480.126+731.263+482.285C713.731+484.316+713.833+445.163+731.981+404.357C750.83+362.112+779.298+329.186+793.831+328.47C807.018+327.942+807.018+355.516+785.949+407.408Z" fill-rule="evenodd" fill="url(#LinearGradient_12)" opacity="1"/>
<path d="M925.707+332.537C928.297+316.159+926.528+301.289+918.188+291.348C914.85+287.376+911.199+287.446+908.779+292.674C886.605+337.167+861.154+402.579+856.29+431.279C852.379+454.071+857.213+468.061+867.473+475.508C872.09+478.858+874.516+476.74+875.723+472.562C888.868+428.903+902.339+384.311+924.603+352.705C948.72+318.171+972.879+302.304+977.617+303.419C986.205+305.76+953.675+357.494+945.268+402.262C937.935+441.989+950.929+467.732+989.005+462.357C1014.98+458.69+1039.89+432.488+1048.34+406.393C1052.73+392.879+1052.12+382.733+1048.27+378.384C1045.51+375.215+1042.38+375.661+1040.72+379.892C1028.25+412.783+1010.6+444.629+992.361+448.092C976.368+451.243+970.622+431.15+978.498+404.245C985.414+380.145+1002.55+344.813+1009.1+324.321C1016.92+300.092+999.845+280.709+984.732+280.621C969.626+280.527+942.745+308.782+925.707+332.537Z" fill-rule="evenodd" fill="url(#LinearGradient_13)" opacity="1"/>
<path d="M1119.24+231.836C1111.66+220.898+1097.89+217.506+1091.83+225.922C1085.77+234.338+1085.48+247.72+1094.41+258.468C1102.81+268.844+1115.55+268.38+1120.47+261.46C1125.38+254.54+1126.75+242.338+1119.24+231.836ZM1077.05+448.59C1102.14+445.052+1127.63+422.771+1137.03+393.87C1140.78+382.222+1140.76+372.886+1136.14+366.425C1133.83+363.192+1130.62+363.203+1128.97+367.44C1120.02+399.386+1099.67+431.608+1079.65+435.329C1065.44+438.222+1062.01+421.362+1068.99+394.586C1075.15+371.477+1089.53+339.203+1096.08+318.711C1103.58+295.421+1097.2+277.194+1089.44+271.174C1085.27+267.762+1082.33+269.513+1079.08+275.305C1065.89+300.297+1044+355.862+1037.55+389.24C1030.33+426.726+1043.01+453.396+1077.05+448.59Z" fill-rule="evenodd" fill="url(#LinearGradient_14)" opacity="1"/>
<path d="M1165.3+353.415C1200.36+373.813+1228.68+358.251+1246.73+329.022C1262.23+304.152+1261.84+277.083+1252.22+267.765C1243.62+259.195+1234.58+253.8+1222.41+248.848C1198.12+239.379+1155.81+268.474+1135.09+328.775C1114.36+389.07+1142.2+440.727+1198.96+431.825C1233.39+426.52+1264.89+401.616+1279.74+372.393C1286.1+359.929+1285.63+347.547+1283.32+344.314C1280.94+340.646+1277.36+341.151+1275.64+344.954C1260.66+376.418+1233.17+415.882+1195.73+419.385C1171.8+421.433+1156.95+395.507+1165.3+353.415ZM1167.9+343.264C1168.47+340.957+1169.42+338.158+1170.38+335.353C1185.25+291.008+1218.53+259.624+1229.04+265.7C1236.03+269.607+1229.55+293.643+1217.95+313.964C1207.43+332.349+1191.86+353.668+1167.9+343.264Z" fill-rule="evenodd" fill="url(#LinearGradient_15)" opacity="1"/>
<path d="M1309.44+320.172C1345.54+289.283+1387.9+229.933+1393.79+174.401C1396.11+153.172+1391.01+137.436+1376.33+127.946C1369.22+123.168+1363.08+124.925+1357.4+132.842C1318.6+185.46+1279.31+271.502+1274.05+349.625C1270.77+398.119+1290.47+416.685+1321.5+413.194C1357.47+409.004+1384.77+368.238+1389.09+354.29C1392.46+343.14+1392.82+333.305+1389.54+326.651C1386.84+320.806+1381.97+321.939+1379.69+328.042C1367.22+364.048+1340.55+399.832+1318.78+401.123C1298.37+402.226+1297.9+365.381+1309.44+320.172ZM1314.71+300.303C1316.8+292.892+1319.35+285.416+1322.34+277.881C1344.92+217.767+1370.85+164.742+1377.19+167.404C1383.54+170.066+1368.86+243.295+1314.71+300.303Z" fill-rule="evenodd" fill="url(#LinearGradient_16)" opacity="1"/>
</g>
</g>
</g>
</svg>
